<svg width="41" height="52" viewBox="0 0 41 52" fill="none" xmlns="http://www.w3.org/2000/svg">
<path d="M12.4999 7.66699H7.16658C5.7521 7.66699 4.39554 8.2289 3.39535 9.22909C2.39515 10.2293 1.83325 11.5858 1.83325 13.0003V45.0003C1.83325 46.4148 2.39515 47.7714 3.39535 48.7716C4.39554 49.7718 5.7521 50.3337 7.16658 50.3337H33.8333C35.2477 50.3337 36.6043 49.7718 37.6045 48.7716C38.6047 47.7714 39.1666 46.4148 39.1666 45.0003V13.0003C39.1666 11.5858 38.6047 10.2293 37.6045 9.22909C36.6043 8.2289 35.2477 7.66699 33.8333 7.66699H28.4999" stroke="black" stroke-width="3" stroke-linecap="round" stroke-linejoin="round"/>
<path d="M25.8333 23.6668H19.1667C18.1058 23.6668 17.0884 24.0883 16.3382 24.8384C15.5881 25.5885 15.1667 26.606 15.1667 27.6668C15.1667 28.7277 15.5881 29.7451 16.3382 30.4953C17.0884 31.2454 18.1058 31.6668 19.1667 31.6668H21.8333C22.8942 31.6668 23.9116 32.0883 24.6618 32.8384C25.4119 33.5885 25.8333 34.606 25.8333 35.6668C25.8333 36.7277 25.4119 37.7451 24.6618 38.4953C23.9116 39.2454 22.8942 39.6668 21.8333 39.6668H15.1667M20.5 39.6668V42.3335M20.5 21.0002V23.6668M12.5 7.66683C12.5 6.25234 13.0619 4.89579 14.0621 3.89559C15.0623 2.8954 16.4188 2.3335 17.8333 2.3335H23.1667C24.5812 2.3335 25.9377 2.8954 26.9379 3.89559C27.9381 4.89579 28.5 6.25234 28.5 7.66683C28.5 9.08132 27.9381 10.4379 26.9379 11.4381C25.9377 12.4383 24.5812 13.0002 23.1667 13.0002H17.8333C16.4188 13.0002 15.0623 12.4383 14.0621 11.4381C13.0619 10.4379 12.5 9.08132 12.5 7.66683Z" stroke="black" stroke-width="3" stroke-linecap="round" stroke-linejoin="round"/>
</svg>
