<svg width="55" height="55" viewBox="0 0 55 55" fill="none" xmlns="http://www.w3.org/2000/svg">
<path d="M15.493 50H10.1597C8.03794 50 6.0031 49.1571 4.50281 47.6569C3.00252 46.1566 2.15967 44.1217 2.15967 42V39.3333H16.8263M39.493 16.6667V7.33334C39.493 6.2785 39.8058 5.24736 40.3918 4.37029C40.9779 3.49323 41.8108 2.80965 42.7854 2.40598C43.7599 2.00231 44.8322 1.89669 45.8668 2.10248C46.9014 2.30827 47.8517 2.81622 48.5976 3.5621C49.3434 4.30798 49.8514 5.25829 50.0572 6.29285C50.263 7.32742 50.1574 8.39978 49.7537 9.37431C49.35 10.3489 48.6664 11.1818 47.7894 11.7678C46.9123 12.3539 45.8812 12.6667 44.8263 12.6667H39.493" stroke="white" stroke-width="4" stroke-linecap="round" stroke-linejoin="round"/>
<path d="M44.8265 2H15.4932C13.3714 2 11.3366 2.84286 9.83631 4.34315C8.33602 5.84344 7.49316 7.87827 7.49316 10V39.3333M18.1598 12.6667H28.8265M18.1598 23.3333H28.8265M43.2798 27.6267C44.3301 26.5764 45.7545 25.9864 47.2398 25.9864C48.7251 25.9864 50.1496 26.5764 51.1998 27.6267C52.2501 28.6769 52.8401 30.1014 52.8401 31.5867C52.8401 33.072 52.2501 34.4964 51.1998 35.5467L34.1598 52.6667H26.1598V44.6667L43.2798 27.6267Z" stroke="white" stroke-width="4" stroke-linecap="round" stroke-linejoin="round"/>
</svg>
