<svg width="53" height="47" viewBox="0 0 53 47" fill="none" xmlns="http://www.w3.org/2000/svg">
<path d="M46.5225 24.8739L26.5224 44.6819L6.52245 24.8739C5.20327 23.5903 4.16416 22.0473 3.47058 20.3423C2.77699 18.6373 2.44395 16.8072 2.49242 14.9671C2.54089 13.1271 2.96982 11.317 3.7522 9.65085C4.53459 7.98472 5.65348 6.49863 7.03841 5.28616C8.42335 4.0737 10.0443 3.16112 11.7993 2.6059C13.5542 2.05068 15.4051 1.86484 17.2354 2.06009C19.0657 2.25533 20.8358 2.82743 22.4341 3.74037C24.0325 4.6533 25.4244 5.88728 26.5224 7.36462C27.6252 5.89801 29.0188 4.6748 30.6161 3.77156C32.2133 2.86832 33.9798 2.30448 35.8049 2.11534C37.6301 1.92619 39.4747 2.11581 41.2232 2.67233C42.9717 3.22884 44.5865 4.14028 45.9666 5.34959C47.3467 6.55889 48.4623 8.04004 49.2436 9.70033C50.0249 11.3606 50.4551 13.1643 50.5073 14.9985C50.5595 16.8327 50.2325 18.6579 49.5468 20.36C48.8611 22.062 47.8315 23.6041 46.5225 24.8899" stroke="black" stroke-width="3" stroke-linecap="round" stroke-linejoin="round"/>
<path d="M26.5225 7.34863L17.7412 16.13C17.2413 16.63 16.9604 17.3082 16.9604 18.0153C16.9604 18.7224 17.2413 19.4006 17.7412 19.9006L19.1892 21.3486C21.0292 23.1886 24.0159 23.1886 25.8559 21.3486L28.5225 18.682C29.3101 17.8934 30.2454 17.2678 31.2749 16.841C32.3045 16.4142 33.408 16.1945 34.5225 16.1945C35.637 16.1945 36.7406 16.4142 37.7701 16.841C38.7997 17.2678 39.735 17.8934 40.5225 18.682L46.5225 24.682M27.8559 32.682L33.1892 38.0153M34.5225 26.0153L39.8559 31.3486" stroke="black" stroke-width="3" stroke-linecap="round" stroke-linejoin="round"/>
</svg>
